<?xml version="1.0" encoding="utf-8"?><svg xmlns="http://www.w3.org/2000/svg" xmlns:xlink="http://www.w3.org/1999/xlink" width="1422" height="833" preserveAspectRatio="xMidYMid" viewBox="0 0 1422 833" style="z-index:1;margin-right:-1.99074px;display:block;background-repeat-y:initial;background-repeat-x:initial;background-color:rgb(255, 255, 255);animation-play-state:paused" ><g transform="translate(711,416.5) scale(1,1) translate(-711,-416.5)" style="transform:matrix(1, 0, 0, 1, 0, 0);animation-play-state:paused" ><linearGradient id="lg-0.5429822988971469" x1="0" x2="1" y1="0" y2="0" style="animation-play-state:paused" ><stop stop-color="#ff00ff" offset="0" style="animation-play-state:paused" ></stop>

  
<stop stop-color="#00ffff" offset="1" style="animation-play-state:paused" ></stop></linearGradient>
<path d="M 0 0 M 0 738.635 Q 142.2 768.953 284.4 763.278 T 568.8 697.799 T 853.2 666.043 T 1137.6 613.858 T 1422 643.681 L 1422 275.039 Q 1279.8 199.014 1137.6 191.756 T 853.2 210.112 T 568.8 99.0481 T 284.4 128.497 T 0 49.6169 Z" fill="url(#lg-0.5429822988971469)" opacity="0.4" style="opacity:0.4;animation-play-state:paused" ></path>
<path d="M 0 0 M 0 780.699 Q 142.2 732.378 284.4 727.403 T 568.8 736.385 T 853.2 654.471 T 1137.6 662.071 T 1422 625.912 L 1422 233.47 Q 1279.8 218.98 1137.6 215.599 T 853.2 178.739 T 568.8 142.902 T 284.4 98.902 T 0 66.3671 Z" fill="url(#lg-0.5429822988971469)" opacity="0.4" style="opacity:0.4;animation-play-state:paused" ></path>
<path d="M 0 0 M 0 710.51 Q 142.2 717.77 284.4 709.676 T 568.8 659.193 T 853.2 656.291 T 1137.6 628.583 T 1422 620.126 L 1422 193.302 Q 1279.8 211.295 1137.6 206.864 T 853.2 198.456 T 568.8 121.855 T 284.4 102.768 T 0 78.6655 Z" fill="url(#lg-0.5429822988971469)" opacity="0.4" style="opacity:0.4;animation-play-state:paused" ></path>
<path d="M 0 0 M 0 741.943 Q 142.2 763.148 284.4 758.665 T 568.8 668.15 T 853.2 691.645 T 1137.6 639.399 T 1422 594.014 L 1422 250.004 Q 1279.8 189.716 1137.6 182.637 T 853.2 158.193 T 568.8 158.942 T 284.4 103.538 T 0 107 Z" fill="url(#lg-0.5429822988971469)" opacity="0.4" style="opacity:0.4;animation-play-state:paused" ></path></g></svg>