<?xml version="1.0" encoding="utf-8"?><svg xmlns="http://www.w3.org/2000/svg" xmlns:xlink="http://www.w3.org/1999/xlink" width="1422" height="624" preserveAspectRatio="xMidYMid" viewBox="0 0 1422 624" style="z-index:1;margin-right:-1.99074px;display:block;background-repeat-y:initial;background-repeat-x:initial;background-color:rgb(255, 255, 255);animation-play-state:paused" ><g transform="translate(711,312) scale(1,1) translate(-711,-312)" style="transform:matrix(1, 0, 0, 1, 0, 0);animation-play-state:paused" ><linearGradient id="lg-0.8524970813503037" x1="0" x2="1" y1="0" y2="0" style="animation-play-state:paused" ><stop stop-color="#ff00ff" offset="0" style="animation-play-state:paused" ></stop>

  
<stop stop-color="#00ffff" offset="1" style="animation-play-state:paused" ></stop></linearGradient>
<path d="M 0 0 L 0 602.331 Q 142.2 591.262 284.4 557.182 T 568.8 401.393 T 853.2 407.45 T 1137.6 350.73 T 1422 348.981 L 1422 0 Z" fill="url(#lg-0.8524970813503037)" opacity="0.4" style="opacity:0.4;animation-play-state:paused" ></path>
<path d="M 0 0 L 0 580.929 Q 142.2 531.009 284.4 493.574 T 568.8 466.316 T 853.2 410.989 T 1137.6 329.808 T 1422 270.046 L 1422 0 Z" fill="url(#lg-0.8524970813503037)" opacity="0.4" style="opacity:0.4;animation-play-state:paused" ></path>
<path d="M 0 0 L 0 539.552 Q 142.2 502.531 284.4 474.966 T 568.8 483.164 T 853.2 396.84 T 1137.6 324.769 T 1422 298.58 L 1422 0 Z" fill="url(#lg-0.8524970813503037)" opacity="0.4" style="opacity:0.4;animation-play-state:paused" ></path>
<path d="M 0 0 L 0 545.614 Q 142.2 593.436 284.4 565.336 T 568.8 502.393 T 853.2 378.73 T 1137.6 335.852 T 1422 336.385 L 1422 0 Z" fill="url(#lg-0.8524970813503037)" opacity="0.4" style="opacity:0.4;animation-play-state:paused" ></path>
<path d="M 0 0 L 0 574.52 Q 142.2 527.001 284.4 507.592 T 568.8 490.991 T 853.2 410.232 T 1137.6 347.111 T 1422 239.532 L 1422 0 Z" fill="url(#lg-0.8524970813503037)" opacity="0.4" style="opacity:0.4;animation-play-state:paused" ></path></g></svg>